# xmcd
#
# Track frame offsets:
#	150
#	17932
#	32502
#	49699
#	64765
#	81897
#	95161
#	108568
#	126421
#	139890
#	153824
#	168475
#	179423
#
# Disc length: 2625 seconds
#
# Revision: 0
# Processed by: cddbd v1.5.2PL0 Copyright (c) Steve Scherf et al.
# Submitted via: audiograbber 1.83.01
#
DISCID=b20a3f0d
DTITLE=Jamie Richards - No Regrets
DYEAR=2001
DGENRE=Country
TTITLE0=Don't Try To Find Me
TTITLE1=Cold In Mexico
TTITLE2=With You
TTITLE3=I'll Always Remember
TTITLE4=Tears Too Deep To Cry
TTITLE5=Red River Runaround
TTITLE6=The Rooster
TTITLE7=Room With No Windows
TTITLE8=One Tequila
TTITLE9=That's Me
TTITLE10=Bittersweet Wine
TTITLE11=Ordinary Joe
TTITLE12=Tear In Your Eye
EXTD=
EXTT0=
EXTT1=
EXTT2=
EXTT3=
EXTT4=
EXTT5=
EXTT6=
EXTT7=
EXTT8=
EXTT9=
EXTT10=
EXTT11=
EXTT12=
PLAYORDER=
